<svg width="630" height="337" viewBox="0 0 630 337" fill="none" xmlns="http://www.w3.org/2000/svg">
<rect width="630" height="337" fill="white"/>
<rect width="630" height="245" rx="30" fill="#4F51AA"/>
<ellipse cx="39.6078" cy="42.5433" rx="33.6078" ry="35.022" fill="#FD8FA4"/>
<ellipse cx="39.6073" cy="42.5434" rx="23.4554" ry="23.5863" fill="#4F51AA"/>
<path d="M63.1267 78.822C63.1267 85.7299 57.4842 91.3298 50.5238 91.3298C43.5634 91.3298 37.9208 85.7299 37.9208 78.822C37.9208 71.9141 43.5634 66.3141 50.5238 66.3141C57.4842 66.3141 63.1267 71.9141 63.1267 78.822Z" fill="white"/>
<path d="M80.0002 56.8381C80.0002 61.1802 76.7871 64.7001 72.8236 64.7001C68.86 64.7001 65.6469 61.1802 65.6469 56.8381C65.6469 52.4959 68.86 48.976 72.8236 48.976C76.7871 48.976 80.0002 52.4959 80.0002 56.8381Z" fill="#FFDE81"/>
<ellipse cx="593" cy="206.5" rx="37" ry="38.5" fill="#FD8FA4"/>
<ellipse cx="603.5" cy="217.5" rx="26.5" ry="27.5" fill="#FFDE81"/>
<circle cx="603.5" cy="145.5" r="12.5" fill="white"/>
<ellipse cx="556.5" cy="217.5" rx="10.5" ry="11.5" fill="#FFDE81"/>
<path d="M589 113.805C589 119.435 585.194 124 580.5 124C575.806 124 572 119.435 572 113.805C572 108.174 575.806 105 580.5 105C585.194 105 589 108.174 589 113.805Z" fill="#FD8FA4"/>
<rect y="158" width="57" height="139" fill="#4F51AA"/>
<rect y="243" width="630" height="94" rx="45" fill="white"/>
</svg>
