<svg width="19" height="38" viewBox="0 0 19 38" fill="none" xmlns="http://www.w3.org/2000/svg">
<rect width="19" height="38" fill="#FFE8CE"/>
<path d="M18.9999 3.5039C18.9999 5.43905 17.3826 7.00779 15.3877 7.00779C13.3927 7.00779 11.7755 5.43905 11.7755 3.5039C11.7755 1.56875 13.3927 0 15.3877 0C17.3826 0 18.9999 1.56875 18.9999 3.5039Z" fill="white"/>
<path d="M17.7641 3.5039C17.7641 4.77702 16.7002 5.80909 15.3877 5.80909C14.0752 5.80909 13.0112 4.77702 13.0112 3.5039C13.0112 2.23077 14.0752 1.1987 15.3877 1.1987C16.7002 1.1987 17.7641 2.23077 17.7641 3.5039Z" fill="#FFDE81"/>
<path d="M12.6785 5.07143C12.6785 5.93715 11.955 6.63896 11.0625 6.63896C10.17 6.63896 9.44653 5.93715 9.44653 5.07143C9.44653 4.2057 10.17 3.5039 11.0625 3.5039C11.955 3.5039 12.6785 4.2057 12.6785 5.07143Z" fill="#FD8FA4"/>
<path d="M17.5265 6.86948C17.5265 7.27688 17.186 7.60714 16.766 7.60714C16.346 7.60714 16.0056 7.27688 16.0056 6.86948C16.0056 6.46208 16.346 6.13182 16.766 6.13182C17.186 6.13182 17.5265 6.46208 17.5265 6.86948Z" fill="#4F51AA"/>
</svg>
