<svg width="630" height="1873" viewBox="0 0 630 1873" fill="none" xmlns="http://www.w3.org/2000/svg">
<rect x="374" y="177" width="45" height="59" fill="#FFDE81"/>
<path d="M448 170.006C448 218.61 412.619 258.012 368.975 258.012C325.331 258.012 289.95 218.61 289.95 170.006C289.95 121.402 325.331 82 368.975 82C412.619 82 448 121.402 448 170.006Z" fill="white"/>
<path d="M309.706 209.377C309.706 231.121 293.878 248.748 274.353 248.748C254.828 248.748 239 231.121 239 209.377C239 187.633 254.828 170.006 274.353 170.006C293.878 170.006 309.706 187.633 309.706 209.377Z" fill="#FD8FA4"/>
<path d="M415.766 254.538C415.766 264.77 408.318 273.065 399.129 273.065C389.941 273.065 382.493 264.77 382.493 254.538C382.493 244.305 389.941 236.01 399.129 236.01C408.318 236.01 415.766 244.305 415.766 254.538Z" fill="#4F51AA"/>
<ellipse cx="375" cy="170.5" rx="60" ry="57.5" fill="#4F51AA"/>
<path d="M630 0H0V1873H630V0Z" fill="white"/>
<path d="M60 121H0V282H60V121Z" fill="#4F51AA"/>
<ellipse cx="419.5" cy="109.5" rx="32.5" ry="27.5" fill="#4F51AA"/>
<rect x="347" y="111" width="42" height="21" fill="#FFDE81"/>
<rect x="125" y="57" width="294" height="74" fill="#4F51AA"/>
<path d="M399 121C399 138.121 385.121 152 368 152C350.879 152 337 138.121 337 121C337 103.879 350.879 90 368 90C385.121 90 399 103.879 399 121Z" fill="#4F51AA"/>
<ellipse cx="371" cy="179" rx="44" ry="42" fill="#FFDE81"/>
<rect x="273" y="86" width="190" height="51" fill="#4F51AA"/>
<path d="M580 0H50C22.3858 0 0 22.3858 0 50V178C0 205.614 22.3858 228 50 228H580C607.614 228 630 205.614 630 178V50C630 22.3858 607.614 0 580 0Z" fill="#4F51AA"/>
<path d="M369 137H50C22.3858 137 0 159.872 0 188.087V318.87C0 347.084 22.3858 369.957 50 369.957H369C396.614 369.957 419 347.084 419 318.87V188.087C419 159.872 396.614 137 369 137Z" fill="#FFE8CE"/>
<ellipse cx="379.62" cy="174.929" rx="83.3807" ry="88.9286" fill="#FFDE81"/>
<ellipse cx="379.619" cy="174.929" rx="55.2523" ry="58.9286" fill="#FFDE81"/>
<ellipse cx="279.161" cy="200.643" rx="35.1606" ry="37.5" fill="#4F51AA"/>
<ellipse cx="399.711" cy="262.786" rx="17.078" ry="18.2143" fill="white"/>
<rect x="265" y="37" width="309" height="100" fill="#4F51AA"/>
<rect x="417" y="52" width="82" height="176" fill="#4F51AA"/>
<rect x="419" y="228" width="89" height="100" fill="white"/>
<ellipse cx="424.5" cy="139.5" rx="97.5" ry="88.5" fill="#4F51AA"/>
<ellipse cx="417.5" cy="121.5" rx="65.5" ry="60.5" fill="#4F51AA"/>
<rect x="446" y="57" width="31" height="150" fill="#4F51AA"/>
<rect x="324" y="62" width="220" height="54" fill="#4F51AA"/>
<rect x="315" y="137" width="54" height="35" fill="#FFDE81"/>
<rect x="369" y="201" width="50" height="35" fill="#FFDE81"/>
<ellipse cx="387.5" cy="182.5" rx="58.5" ry="53.5" fill="#4F51AA"/>
<ellipse cx="374.5" cy="210.5" rx="36.5" ry="38.5" fill="#FFDE81"/>
<rect x="396" y="177" width="23" height="64" fill="#FFDE81"/>
<path d="M418.791 185.242C418.791 212.58 395.51 234.742 366.791 234.742C338.072 234.742 314.791 212.58 314.791 185.242C314.791 157.904 338.072 135.742 366.791 135.742C395.51 135.742 418.791 157.904 418.791 185.242Z" fill="#FD8FA4"/>
<path d="M419 182.5C419 207.629 400.868 228 378.5 228C356.132 228 338 207.629 338 182.5C338 157.371 356.132 137 378.5 137C400.868 137 419 157.371 419 182.5Z" fill="#FD8FA4"/>
<rect y="278" width="82" height="191" fill="#FFE8CE"/>
<rect y="357" width="626" height="359" rx="45" fill="white"/>
</svg>
