<svg width="406" height="601" viewBox="0 0 406 601" fill="none" xmlns="http://www.w3.org/2000/svg">
<path d="M0 45C0 20.1472 20.1472 0 45 0H361C385.853 0 406 20.1472 406 45V342H0V45Z" fill="#FCF9F7"/>
<path d="M0 45C0 20.1472 20.1472 0 45 0H361C385.853 0 406 20.1472 406 45V140C406 195.228 361.228 240 306 240H0V45Z" fill="#FFE8CE"/>
<path d="M316 125H405.788V288.962H316V125Z" fill="white"/>
<path d="M0 68C0 43.1472 20.1472 23 45 23H361C385.853 23 406 43.1472 406 68V141.962C406 166.814 385.853 186.962 361 186.962H0V68Z" fill="#FFE8CE"/>
<path d="M361.755 103.01C406.493 103.01 442.76 66.7425 442.76 22.0048C442.76 -22.7329 406.493 -59 361.755 -59C317.017 -59 280.75 -22.7329 280.75 22.0048C280.75 66.7425 317.017 103.01 361.755 103.01Z" fill="white"/>
<path d="M361.755 75.6827C391.4 75.6827 415.433 51.6503 415.433 22.0048C415.433 -7.64068 391.4 -31.6731 361.755 -31.6731C332.11 -31.6731 308.077 -7.64068 308.077 22.0048C308.077 51.6503 332.11 75.6827 361.755 75.6827Z" fill="#FFDE81"/>
<path d="M264.159 79.5866C283.024 79.5866 298.318 64.2932 298.318 45.4279C298.318 26.5626 283.024 11.2692 264.159 11.2692C245.294 11.2692 230 26.5626 230 45.4279C230 64.2932 245.294 79.5866 264.159 79.5866Z" fill="#4F51AA"/>
<path d="M381.274 118.625C390.437 118.625 397.865 111.197 397.865 102.034C397.865 92.8709 390.437 85.4427 381.274 85.4427C372.111 85.4427 364.683 92.8709 364.683 102.034C364.683 111.197 372.111 118.625 381.274 118.625Z" fill="#FD8FA4"/>
<path d="M0 232C0 207.147 20.1472 187 45 187H361C385.853 187 406 207.147 406 232V600.808H0V232Z" fill="white"/>
<rect x="335" width="71" height="46" fill="#FFDE81"/>
<rect x="-3" y="-2" width="58" height="65" fill="#FFE8CE"/>
</svg>
